<?xml version="1.0" standalone="no"?>
<!DOCTYPE svg PUBLIC "-//W3C//DTD SVG 20010904//EN"
 "http://www.w3.org/TR/2001/REC-SVG-20010904/DTD/svg10.dtd">
<svg version="1.0" xmlns="http://www.w3.org/2000/svg"
 width="70.000000pt" height="70.000000pt" viewBox="0 0 70.000000 70.000000"
 preserveAspectRatio="xMidYMid meet">
<metadata>
Created by potrace 1.14, written by Peter Selinger 2001-2017
</metadata>
<g transform="translate(0.000000,70.000000) scale(0.100000,-0.100000)"
fill="#000000" stroke="none">
<path d="M245 687 c-256 -85 -329 -415 -130 -594 77 -70 123 -87 235 -88 84 0
102 3 150 27 72 36 133 96 167 166 25 50 28 68 28 152 0 84 -3 102 -28 152
-60 121 -165 190 -301 195 -48 2 -97 -2 -121 -10z m188 -13 c16 -3 26 -9 22
-12 -8 -8 -225 -9 -225 -1 0 20 131 29 203 13z m-113 -39 c3 -2 6 -66 6 -142
-1 -149 3 -139 -51 -134 -12 1 -15 15 -15 60 0 33 5 63 10 66 24 15 -4 20 -82
17 -75 -2 -87 -6 -120 -33 -21 -16 -38 -27 -38 -24 0 3 9 25 21 50 24 52 105
137 128 134 9 -1 23 1 31 4 35 13 47 15 74 11 16 -3 32 -7 36 -9z m169 0 c11
-3 21 -12 22 -18 0 -7 4 -4 7 6 15 37 123 -83 147 -162 l7 -24 -28 27 c-32 29
-67 38 -156 40 -57 1 -79 -6 -58 -19 5 -3 10 -34 10 -69 0 -59 -1 -63 -22 -62
-13 1 -28 5 -33 8 -12 7 -13 257 -2 276 7 11 68 9 106 -3z m-281 -212 c-3 -65
-4 -67 -30 -68 -15 -1 -37 7 -48 17 -20 19 -20 18 -20 -22 0 -38 1 -40 16 -26
8 9 18 16 22 17 4 1 19 2 35 3 l27 3 0 -70 0 -70 -46 6 c-71 8 -101 47 -108
141 -3 29 14 77 33 100 21 24 48 35 89 35 l33 1 -3 -67z m377 51 c39 -18 57
-56 59 -122 2 -90 -44 -142 -123 -142 l-32 0 3 68 c3 70 1 68 52 63 8 0 22 -8
30 -17 15 -14 16 -12 16 25 0 41 0 41 -20 21 -12 -12 -29 -18 -42 -16 -13 3
-26 5 -30 5 -5 1 -8 30 -8 66 l0 65 31 0 c17 0 46 -7 64 -16z m-264 -133 c8
-2 5 -268 -3 -277 -17 -16 -5 -20 63 -19 39 0 73 -3 75 -6 13 -21 -150 -29
-199 -10 -36 14 -34 23 2 16 17 -3 32 -2 35 3 2 4 -14 8 -36 9 -22 1 -49 10
-61 20 -11 10 -17 12 -13 6 14 -25 -19 -13 -55 20 -39 34 -81 96 -94 137 l-7
25 23 -21 c13 -12 34 -27 46 -33 19 -10 117 -16 178 -12 18 1 19 2 3 12 -14 8
-18 24 -18 73 0 67 1 67 61 57z m117 -55 c2 -34 -2 -64 -9 -72 -13 -15 -16
-15 61 -17 74 -2 123 11 154 39 l28 27 -7 -24 c-24 -79 -145 -212 -145 -158 0
6 -7 3 -16 -5 -8 -9 -21 -16 -27 -17 -7 0 -26 -2 -43 -4 -55 -6 -58 1 -59 145
0 137 4 151 44 145 12 -1 17 -16 19 -59z"/>
</g>
</svg>
